{
    "asset" : {
        "generator" : "Khronos glTF Blender I/O v1.3.48",
        "version" : "2.0"
    },
    "scene" : 0,
    "scenes" : [
        {
            "name" : "Scene",
            "nodes" : [
                0,
                1,
                2,
                3,
                4
            ]
        }
    ],
    "nodes" : [
        {
            "name" : "Light",
            "rotation" : [
                0.2696537673473358,
                0.7355837821960449,
                0.18231475353240967,
                0.5941082835197449
            ],
            "translation" : [
                -25.95575714111328,
                47.263519287109375,
                13.320754051208496
            ]
        },
        {
            "name" : "Camera",
            "rotation" : [
                0.483536034822464,
                0.33687159419059753,
                -0.20870360732078552,
                0.7804827094078064
            ],
            "translation" : [
                7.358891487121582,
                4.958309173583984,
                6.925790786743164
            ]
        },
        {
            "mesh" : 0,
            "name" : "ice box final.001",
            "rotation" : [
                0.7071068286895752,
                0,
                0,
                0.7071067094802856
            ],
            "scale" : [
                0.22450226545333862,
                0.22450226545333862,
                0.22450226545333862
            ],
            "translation" : [
                0,
                -0.5608406066894531,
                0
            ]
        },
        {
            "mesh" : 1,
            "name" : "ice box final.002",
            "rotation" : [
                0.7071068286895752,
                0,
                0,
                0.7071067094802856
            ],
            "scale" : [
                0.22450226545333862,
                0.22450226545333862,
                0.22450226545333862
            ]
        },
        {
            "mesh" : 2,
            "name" : "ice box final.003",
            "rotation" : [
                0.7071068286895752,
                0,
                0,
                0.7071067094802856
            ],
            "scale" : [
                0.22450226545333862,
                0.22450226545333862,
                0.22450226545333862
            ],
            "translation" : [
                0.6053673624992371,
                -0.8064141869544983,
                -0.017319627106189728
            ]
        }
    ],
    "materials" : [
        {
            "doubleSided" : true,
            "emissiveFactor" : [
                0,
                0,
                0
            ],
            "name" : "Material.001",
            "pbrMetallicRoughness" : {
                "baseColorFactor" : [
                    0.005295112729072571,
                    0.16465884447097778,
                    1,
                    1
                ],
                "metallicFactor" : 0,
                "roughnessFactor" : 0.5
            }
        },
        {
            "doubleSided" : true,
            "emissiveFactor" : [
                0,
                0,
                0
            ],
            "name" : "FrontColor",
            "pbrMetallicRoughness" : {
                "baseColorFactor" : [
                    1,
                    1,
                    1,
                    1
                ],
                "metallicFactor" : 0,
                "roughnessFactor" : 1
            }
        }
    ],
    "meshes" : [
        {
            "name" : "ice box final.001",
            "primitives" : [
                {
                    "attributes" : {
                        "POSITION" : 0,
                        "NORMAL" : 1,
                        "TEXCOORD_0" : 2
                    },
                    "indices" : 3,
                    "material" : 0
                }
            ]
        },
        {
            "name" : "ice box final.002",
            "primitives" : [
                {
                    "attributes" : {
                        "POSITION" : 4,
                        "NORMAL" : 5,
                        "TEXCOORD_0" : 6
                    },
                    "indices" : 7,
                    "material" : 1
                }
            ]
        },
        {
            "name" : "ice box final.003",
            "primitives" : [
                {
                    "attributes" : {
                        "POSITION" : 8,
                        "NORMAL" : 9,
                        "TEXCOORD_0" : 10
                    },
                    "indices" : 11,
                    "material" : 1
                }
            ]
        }
    ],
    "accessors" : [
        {
            "bufferView" : 0,
            "componentType" : 5126,
            "count" : 5276,
            "max" : [
                64.595703125,
                -42.831199645996094,
                -1.2000000476837158
            ],
            "min" : [
                -73.51529693603516,
                -161.0500030517578,
                -166.1750030517578
            ],
            "type" : "VEC3"
        },
        {
            "bufferView" : 1,
            "componentType" : 5126,
            "count" : 5276,
            "type" : "VEC3"
        },
        {
            "bufferView" : 2,
            "componentType" : 5126,
            "count" : 5276,
            "type" : "VEC2"
        },
        {
            "bufferView" : 3,
            "componentType" : 5123,
            "count" : 11526,
            "type" : "SCALAR"
        },
        {
            "bufferView" : 4,
            "componentType" : 5126,
            "count" : 3105,
            "max" : [
                235.79600524902344,
                -42.831199645996094,
                -1.2000000476837158
            ],
            "min" : [
                97.78469848632812,
                -151.7550048828125,
                -87.69999694824219
            ],
            "type" : "VEC3"
        },
        {
            "bufferView" : 5,
            "componentType" : 5126,
            "count" : 3105,
            "type" : "VEC3"
        },
        {
            "bufferView" : 6,
            "componentType" : 5126,
            "count" : 3105,
            "type" : "VEC2"
        },
        {
            "bufferView" : 7,
            "componentType" : 5123,
            "count" : 7002,
            "type" : "SCALAR"
        },
        {
            "bufferView" : 8,
            "componentType" : 5126,
            "count" : 19034,
            "max" : [
                56.86909866333008,
                -51.1338996887207,
                -3.4584500789642334
            ],
            "min" : [
                -66.2948989868164,
                -144.7449951171875,
                -75.75399780273438
            ],
            "type" : "VEC3"
        },
        {
            "bufferView" : 9,
            "componentType" : 5126,
            "count" : 19034,
            "type" : "VEC3"
        },
        {
            "bufferView" : 10,
            "componentType" : 5126,
            "count" : 19034,
            "type" : "VEC2"
        },
        {
            "bufferView" : 11,
            "componentType" : 5123,
            "count" : 38028,
            "type" : "SCALAR"
        }
    ],
    "bufferViews" : [
        {
            "buffer" : 0,
            "byteLength" : 63312,
            "byteOffset" : 0
        },
        {
            "buffer" : 0,
            "byteLength" : 63312,
            "byteOffset" : 63312
        },
        {
            "buffer" : 0,
            "byteLength" : 42208,
            "byteOffset" : 126624
        },
        {
            "buffer" : 0,
            "byteLength" : 23052,
            "byteOffset" : 168832
        },
        {
            "buffer" : 0,
            "byteLength" : 37260,
            "byteOffset" : 191884
        },
        {
            "buffer" : 0,
            "byteLength" : 37260,
            "byteOffset" : 229144
        },
        {
            "buffer" : 0,
            "byteLength" : 24840,
            "byteOffset" : 266404
        },
        {
            "buffer" : 0,
            "byteLength" : 14004,
            "byteOffset" : 291244
        },
        {
            "buffer" : 0,
            "byteLength" : 228408,
            "byteOffset" : 305248
        },
        {
            "buffer" : 0,
            "byteLength" : 228408,
            "byteOffset" : 533656
        },
        {
            "buffer" : 0,
            "byteLength" : 152272,
            "byteOffset" : 762064
        },
        {
            "buffer" : 0,
            "byteLength" : 76056,
            "byteOffset" : 914336
        }
    ],
    "buffers" : [
        {
            "byteLength" : 990392,
            "uri" : "data:application/octet-stream;base64,"
        }
    ]
}
